<?xml version="1.0" encoding="UTF-8"?>
<svg id="Layer_1" data-name="Layer 1" xmlns="http://www.w3.org/2000/svg" viewBox="0 0 150 150">
  <defs>
    <style>
      .cls-1 {
        fill: #260859;
      }

      .cls-2 {
        opacity: .3;
      }

      .cls-3 {
        opacity: .1;
      }
    </style>
  </defs>
  <g class="cls-2">
    <g class="cls-3">
      <g>
        <path class="cls-1" d="M90.46,82.96h-6.28c-.08-.36-.4-.62-.78-.62-.44,0-.8.36-.8.8s.36.8.8.8c.38,0,.7-.27.78-.62h6.28v-.37Z"/>
        <polygon class="cls-1" points="90.46 72.37 90.46 72 87.23 72 87.23 61.04 68.7 61.04 64.94 64.8 64.94 75.66 64.32 75.66 64.32 76.02 65.31 76.02 65.31 64.95 68.86 61.41 86.87 61.41 86.87 72.37 90.46 72.37"/>
        <path class="cls-1" d="M64.94,90.27v.21c.6.01,1.2.02,1.8.03.74.02,1.48.03,2.22.05v-6.64c.36-.08.62-.4.62-.78,0-.44-.36-.8-.8-.8s-.8.36-.8.8c0,.38.27.7.62.78v6.34h-3.65Z"/>
        <path class="cls-1" d="M90.46,75.66h-2.63c-.08-.36-.4-.62-.78-.62-.44,0-.8.36-.8.8s.36.8.8.8c.38,0,.7-.27.78-.62h2.63v-.37Z"/>
        <path class="cls-1" d="M72.43,76.64c.38,0,.7-.27.78-.62h6.34v14.88c.12,0,.24,0,.37.01v-15.26h-6.71c-.08-.36-.4-.62-.78-.62-.44,0-.8.36-.8.8s.36.8.8.8Z"/>
        <path class="cls-1" d="M76.27,90.78v-3.2c.36-.08.62-.4.62-.78,0-.44-.36-.8-.8-.8s-.8.36-.8.8c0,.38.27.7.62.78v3.18c.12,0,.24,0,.37.01Z"/>
        <path class="cls-1" d="M90.46,86.62h-7.25v4.44c.12,0,.24.01.37.02v-4.09h6.88v-.37Z"/>
        <path class="cls-1" d="M75.91,82.96h-3.65v6.71c-.36.08-.62.4-.62.78,0,.06,0,.12.02.18.52.01,1.04.03,1.55.04.02-.07.03-.15.03-.23,0-.38-.27-.7-.62-.78v-6.34h3.65v-4.02h-7.31v-14.25h6.94v2.69c-.36.08-.62.4-.62.78,0,.44.36.8.8.8s.8-.36.8-.8c0-.38-.27-.7-.62-.78v-3.05h-7.67v14.98h7.31v3.29Z"/>
        <path class="cls-1" d="M90.46,79.68v-.37h-6.88v-14.61h-4.02v7.31h-6.94v-2.69c.36-.08.62-.4.62-.78,0-.44-.36-.8-.8-.8s-.8.36-.8.8c0,.38.27.7.62.78v3.05h7.67v-7.31h3.29v14.61h7.25Z"/>
        <polygon class="cls-1" points="64.32 79.31 64.32 79.68 64.94 79.68 64.94 86.62 64.32 86.62 64.32 86.98 65.31 86.98 65.31 79.31 64.32 79.31"/>
        <path class="cls-1" d="M64.32,62.29l2.33-2.33c-.18,0-.36.01-.54.02l-1.79,1.79v.52Z"/>
        <path class="cls-1" d="M90.46,90.27h-2.63c-.08-.36-.4-.62-.78-.62-.44,0-.8.36-.8.8,0,.41.3.74.69.8.04,0,.09,0,.13,0,.37,0,.68-.27.76-.62h2.63v-.37Z"/>
      </g>
    </g>
    <g class="cls-3">
      <g>
        <path class="cls-1" d="M101.94,112.28h3.84v-18.63h-6.71c-.08-.36-.4-.62-.78-.62-.44,0-.8.36-.8.8s.36.8.8.8c.38,0,.7-.27.78-.62h6.34v17.9h-3.29v-6.34c.36-.08.62-.4.62-.78,0-.44-.36-.8-.8-.8s-.8.36-.8.8c0,.38.27.7.62.78v6.71h.18Z"/>
        <path class="cls-1" d="M124.04,46.52v-10.36c.36-.08.62-.4.62-.78,0-.44-.36-.8-.8-.8s-.8.36-.8.8c0,.38.27.7.62.78v10h-14.25v-14.61h-4.02v7.31h-6.94v-2.69c.36-.08.62-.4.62-.78,0-.44-.36-.8-.8-.8s-.8.36-.8.8c0,.38.27.7.62.78v3.05h7.67v-7.31h3.29v14.61h14.98Z"/>
        <path class="cls-1" d="M97.5,9.98c.08.36.4.62.78.62.44,0,.8-.36.8-.8s-.36-.8-.8-.8c-.38,0-.7.27-.78.62h-3.05v7.67h18.63V6.33h6.94v6.34c-.36.08-.62.4-.62.78,0,.44.36.8.8.8s.8-.36.8-.8c0-.38-.27-.7-.62-.78v-6.71h-7.67v10.96h-17.9v-6.94h2.69Z"/>
        <path class="cls-1" d="M80.82,39.03c0-.44-.36-.8-.8-.8s-.8.36-.8.8c0,.38.27.7.62.78v3.05h11.33v-11.07l3.55-3.55h18.01v10.96h4.02v-14.61h3.65v-4.02h-3.05c-.08-.36-.4-.62-.78-.62-.44,0-.8.36-.8.8s.36.8.8.8c.38,0,.7-.27.78-.62h2.69v3.29h-3.65v14.61h-3.29v-10.96h-18.53l-3.76,3.76v10.85h-10.6v-2.69c.36-.08.62-.4.62-.78h0Z"/>
        <path class="cls-1" d="M101.94,61.13h3.84v-18.63h-6.71c-.08-.36-.4-.62-.78-.62-.44,0-.8.36-.8.8s.36.8.8.8c.38,0,.7-.27.78-.62h6.34v17.9h-3.29v-6.34c.36-.08.62-.4.62-.78,0-.44-.36-.8-.8-.8s-.8.36-.8.8c0,.38.27.7.62.78v6.71h.18Z"/>
        <path class="cls-1" d="M83.49,35.19h-7.31v14.61h-17.3c-.08-.36-.4-.62-.78-.62-.44,0-.8.36-.8.8s.36.8.8.8c.38,0,.7-.27.78-.62h17.67v-14.61h7.31v-7.41l3.05-3.05c.12.08.27.12.42.12.44,0,.8-.36.8-.8s-.36-.8-.8-.8-.8.36-.8.8c0,.16.05.3.12.42l-3.15,3.15v7.2h0Z"/>
        <path class="cls-1" d="M124.04,97.67v-10.36c.36-.08.62-.4.62-.78,0-.44-.36-.8-.8-.8s-.8.36-.8.8c0,.38.27.7.62.78v10h-14.25v-14.61h-4.02v7.31h-6.94v-2.69c.36-.08.62-.4.62-.78,0-.44-.36-.8-.8-.8s-.8.36-.8.8c0,.38.27.7.62.78v3.05h7.67v-7.31h3.29v14.61h14.98Z"/>
        <path class="cls-1" d="M97.5,61.13c.08.36.4.62.78.62.44,0,.8-.36.8-.8s-.36-.8-.8-.8c-.38,0-.7.27-.78.62h-3.05v7.67h18.63v-10.96h6.94v6.34c-.36.08-.62.4-.62.78,0,.44.36.8.8.8s.8-.36.8-.8c0-.38-.27-.7-.62-.78v-6.71h-7.67v10.96h-17.9v-6.94h2.69Z"/>
        <path class="cls-1" d="M101.94,50.17h.18v-4.02h-7.31v-14.25h6.94v2.69c-.36.08-.62.4-.62.78,0,.44.36.8.8.8s.8-.36.8-.8c0-.38-.27-.7-.62-.78v-3.05h-7.67v14.98h7.31v3.29h-3.65v6.71c-.36.08-.62.4-.62.78,0,.44.36.8.8.8s.8-.36.8-.8c0-.38-.27-.7-.62-.78v-6.34h3.47Z"/>
        <path class="cls-1" d="M120.99,27.88c-.08-.36-.4-.62-.78-.62-.44,0-.8.36-.8.8s.36.8.8.8c.38,0,.7-.27.78-.62h10.36v-6.71c.36-.08.62-.4.62-.78,0-.44-.36-.8-.8-.8s-.8.36-.8.8c0,.38.27.7.62.78v6.34h-10Z"/>
        <path class="cls-1" d="M20.77,17.29c.08.36.4.62.78.62.44,0,.8-.36.8-.8s-.36-.8-.8-.8c-.38,0-.7.27-.78.62h-6.34v-6.34c.36-.08.62-.4.62-.78,0-.44-.36-.8-.8-.8s-.8.36-.8.8c0,.38.27.7.62.78v6.71h6.71Z"/>
        <path class="cls-1" d="M40.01,42.86v-11.07l3.55-3.55h18.01v10.96h4.02v-14.61h3.65v-4.02h-3.05c-.08-.36-.4-.62-.78-.62-.44,0-.8.36-.8.8s.36.8.8.8c.38,0,.7-.27.78-.62h2.69v3.29h-3.65v14.61h-3.29v-10.96h-18.53l-3.76,3.76v10.85h-10.6v-2.69c.36-.08.62-.4.62-.78,0-.44-.36-.8-.8-.8s-.8.36-.8.8c0,.38.27.7.62.78v3.05h11.33Z"/>
        <path class="cls-1" d="M43.4,75.38l-7.41,7.41v7.2h-2.69c-.08-.36-.4-.62-.78-.62-.44,0-.8.36-.8.8s.36.8.8.8c.38,0,.7-.27.78-.62h3.05v-7.41l7.2-7.2h18.38v-4.02h-21.92v-14.25h3.65v-6.71c.36-.08.62-.4.62-.78h0c0-.44-.36-.8-.8-.8s-.8.36-.8.8h0c0,.38.27.7.62.78v6.34h-3.65v14.98h21.92v3.29h-18.16Z"/>
        <path class="cls-1" d="M69.84,27.88c-.08-.36-.4-.62-.78-.62-.44,0-.8.36-.8.8s.36.8.8.8c.38,0,.7-.27.78-.62h10.36v-6.71c.36-.08.62-.4.62-.78,0-.44-.36-.8-.8-.8s-.8.36-.8.8c0,.38.27.7.62.78v6.34h-10Z"/>
        <path class="cls-1" d="M6.94,100.34c-.44,0-.8.36-.8.8s.36.8.8.8c.38,0,.7-.27.78-.62h17.67v-14.61h7.31v-7.41l3.05-3.05c.12.08.27.12.42.12.44,0,.8-.36.8-.8s-.36-.8-.8-.8-.8.36-.8.8c0,.16.05.3.12.42l-3.15,3.15v7.2h-7.31v14.61H7.72c-.08-.36-.4-.62-.78-.62h0Z"/>
        <path class="cls-1" d="M17.1,28.07c0,.44.36.8.8.8.38,0,.7-.27.78-.62h10.36v-6.71c.36-.08.62-.4.62-.78,0-.44-.36-.8-.8-.8s-.8.36-.8.8c0,.38.27.7.62.78v6.34h-10c-.08-.36-.4-.62-.78-.62-.44,0-.8.36-.8.8h0Z"/>
        <path class="cls-1" d="M46.35,9.98c.08.36.4.62.78.62.44,0,.8-.36.8-.8s-.36-.8-.8-.8c-.38,0-.7.27-.78.62h-3.05v7.67h18.63V6.33h6.94v6.34c-.36.08-.62.4-.62.78,0,.44.36.8.8.8s.8-.36.8-.8c0-.38-.27-.7-.62-.78v-6.71h-7.67v10.96h-17.9v-6.94h2.69Z"/>
        <path class="cls-1" d="M6.94,49.18c-.44,0-.8.36-.8.8s.36.8.8.8c.38,0,.7-.27.78-.62h17.67v-14.61h7.31v-7.41l3.05-3.05c.12.08.27.12.42.12.44,0,.8-.36.8-.8s-.36-.8-.8-.8-.8.36-.8.8c0,.16.05.3.12.42l-3.15,3.15v7.2h-7.31v14.61H7.72c-.08-.36-.4-.62-.78-.62h0Z"/>
        <path class="cls-1" d="M10.6,41.88c-.44,0-.8.36-.8.8s.36.8.8.8c.38,0,.7-.27.78-.62h6.71v-10.96h10c.08.36.4.62.78.62.44,0,.8-.36.8-.8s-.36-.8-.8-.8c-.38,0-.7.27-.78.62h-10.36v10.96h-6.34c-.08-.36-.4-.62-.78-.62h0Z"/>
        <path class="cls-1" d="M50.79,101.32h.18v-4.02h-7.31v-14.25h6.94v2.69c-.36.08-.62.4-.62.78,0,.44.36.8.8.8s.8-.36.8-.8c0-.38-.27-.7-.62-.78v-3.05h-7.67v14.98h7.31v3.29h-3.65v6.71c-.36.08-.62.4-.62.78,0,.44.36.8.8.8s.8-.36.8-.8c0-.38-.27-.7-.62-.78v-6.34h3.47Z"/>
        <path class="cls-1" d="M62.53,42.86h6.71v-10.96h10c.08.36.4.62.78.62.44,0,.8-.36.8-.8s-.36-.8-.8-.8c-.38,0-.7.27-.78.62h-10.36v10.96h-6.34c-.08-.36-.4-.62-.78-.62-.44,0-.8.36-.8.8s.36.8.8.8c.38,0,.7-.27.78-.62h0Z"/>
        <path class="cls-1" d="M101.94,101.32h.18v-4.02h-7.31v-14.25h6.94v2.69c-.36.08-.62.4-.62.78,0,.44.36.8.8.8s.8-.36.8-.8c0-.38-.27-.7-.62-.78v-3.05h-7.67v14.98h7.31v3.29h-3.65v6.71c-.36.08-.62.4-.62.78,0,.44.36.8.8.8s.8-.36.8-.8c0-.38-.27-.7-.62-.78v-6.34h3.47Z"/>
        <path class="cls-1" d="M50.79,61.13h3.84v-18.63h-6.71c-.08-.36-.4-.62-.78-.62-.44,0-.8.36-.8.8s.36.8.8.8c.38,0,.7-.27.78-.62h6.34v17.9h-3.29v-6.34c.36-.08.62-.4.62-.78,0-.44-.36-.8-.8-.8s-.8.36-.8.8c0,.38.27.7.62.78v6.71h.18Z"/>
        <path class="cls-1" d="M76.54,53.82h3.65v-7.31h10.6v3.47h.37v-3.84h-11.33v7.31h-3.65v9.2h-3.29v-9.2h-14.98v10.96h-10c-.08-.36-.4-.62-.78-.62-.44,0-.8.36-.8.8s.36.8.8.8c.38,0,.7-.27.78-.62h10.36v-10.96h14.25v9.2h4.02v-9.2h0Z"/>
        <path class="cls-1" d="M47.13,49.81h-.18v6.71c-.36.08-.62.4-.62.78,0,.44.36.8.8.8s.8-.36.8-.8c0-.38-.27-.7-.62-.78v-6.34h3.65v-4.02h-7.31v-14.25h6.94v2.69c-.36.08-.62.4-.62.78,0,.44.36.8.8.8s.8-.36.8-.8c0-.38-.27-.7-.62-.78v-3.05h-7.67v14.98h7.31v3.29h-3.47Z"/>
        <path class="cls-1" d="M101.94,79.4h10.78v10.96h4.02v-14.61h3.65v-4.02h-3.05c-.08-.36-.4-.62-.78-.62-.44,0-.8.36-.8.8s.36.8.8.8c.38,0,.7-.27.78-.62h2.69v3.29h-3.65v14.61h-3.29v-10.96h-25.65v.37h14.51Z"/>
        <path class="cls-1" d="M43.3,68.44h18.23v-1.05h-.37v.69h-17.5v-6.94h2.69c.08.36.4.62.78.62.44,0,.8-.36.8-.8s-.36-.8-.8-.8c-.38,0-.7.27-.78.62h-3.05v7.67h0Z"/>
        <path class="cls-1" d="M113.08,75.75v-4.02h-21.92v-14.25h3.65v-6.71c.36-.08.62-.4.62-.78,0-.44-.36-.8-.8-.8s-.8.36-.8.8c0,.38.27.7.62.78v6.34h-3.65v14.98h21.92v3.29h-25.29v.37h25.65Z"/>
        <path class="cls-1" d="M80.2,57.48h3.65v-7.31h2.69c.08.36.4.62.78.62.44,0,.8-.36.8-.8s-.36-.8-.8-.8c-.38,0-.7.27-.78.62h-3.05v7.31h-3.65v5.36l.37.37v-5.36h0Z"/>
        <path class="cls-1" d="M54.26,31.54v7.31h-6.94v-2.69c.36-.08.62-.4.62-.78,0-.44-.36-.8-.8-.8s-.8.36-.8.8c0,.38.27.7.62.78v3.05h7.67v-7.31h3.29v14.61h14.98v-10.36c.36-.08.62-.4.62-.78,0-.44-.36-.8-.8-.8s-.8.36-.8.8c0,.38.27.7.62.78v10h-14.25v-14.61h-4.02Z"/>
        <path class="cls-1" d="M10.6,93.03c-.44,0-.8.36-.8.8s.36.8.8.8c.38,0,.7-.27.78-.62h6.71v-10.96h10c.08.36.4.62.78.62.44,0,.8-.36.8-.8s-.36-.8-.8-.8c-.38,0-.7.27-.78.62h-10.36v10.96h-6.34c-.08-.36-.4-.62-.78-.62h0Z"/>
        <path class="cls-1" d="M123.08,119.59c.08.36.4.62.78.62.44,0,.8-.36.8-.8s-.36-.8-.8-.8c-.38,0-.7.27-.78.62h-6.34v-6.34c.36-.08.62-.4.62-.78,0-.44-.36-.8-.8-.8s-.8.36-.8.8c0,.38.27.7.62.78v6.71h6.71Z"/>
        <path class="cls-1" d="M50.79,112.28h3.84v-18.63h-6.71c-.08-.36-.4-.62-.78-.62-.44,0-.8.36-.8.8s.36.8.8.8c.38,0,.7-.27.78-.62h6.34v17.9h-3.29v-6.34c.36-.08.62-.4.62-.78,0-.44-.36-.8-.8-.8s-.8.36-.8.8c0,.38.27.7.62.78v6.71h.18Z"/>
        <path class="cls-1" d="M58.09,101.94c.38,0,.7-.27.78-.62h17.67v-12.97l-.37-.37v12.97h-17.3c-.08-.36-.4-.62-.78-.62-.44,0-.8.36-.8.8s.36.8.8.8h0Z"/>
        <path class="cls-1" d="M113.08,108.63h6.94v6.34c-.36.08-.62.4-.62.78,0,.44.36.8.8.8s.8-.36.8-.8c0-.38-.27-.7-.62-.78v-6.71h-7.67v10.96h-17.9v-6.94h2.69c.08.36.4.62.78.62.44,0,.8-.36.8-.8s-.36-.8-.8-.8c-.38,0-.7.27-.78.62h-3.05v7.67h18.63v-10.96h0Z"/>
        <polygon class="cls-1" points="57.91 97.67 72.89 97.67 72.89 88.29 72.53 88.29 72.53 97.3 58.28 97.3 58.28 82.69 54.26 82.69 54.26 90 50.79 90 50.79 90 50.79 90.36 50.79 90.36 54.62 90.36 54.62 83.05 57.91 83.05 57.91 97.67 57.91 97.67"/>
        <path class="cls-1" d="M62.53,94.01h6.71v-5.48l-.37-.37v5.48h-6.34c-.08-.36-.4-.62-.78-.62-.44,0-.8.36-.8.8s.36.8.8.8c.38,0,.7-.27.78-.62h0Z"/>
        <path class="cls-1" d="M50.79,90.36v-.37h-3.47v-2.69c.36-.08.62-.4.62-.78,0-.44-.36-.8-.8-.8s-.8.36-.8.8c0,.38.27.7.62.78v3.05h3.84Z"/>
        <g>
          <path class="cls-1" d="M61.93,108.63h6.94v6.34c-.36.08-.62.4-.62.78,0,.44.36.8.8.8s.8-.36.8-.8c0-.38-.27-.7-.62-.78v-6.71h-7.67v10.96h-17.9v-6.94h2.69c.08.36.4.62.78.62.44,0,.8-.36.8-.8s-.36-.8-.8-.8c-.38,0-.7.27-.78.62h-3.05v7.67h18.63v-10.96h0Z"/>
          <path class="cls-1" d="M149.62,87.31c.36-.08.62-.4.62-.78,0-.44-.36-.8-.8-.8s-.8.36-.8.8c0,.38.27.7.62.78v3.05h1.61v-.37h-1.24v-2.69h0Z"/>
        </g>
        <polygon class="cls-1" points="130.98 152.27 131.35 152.27 131.35 148.82 141.94 148.82 141.94 152.28 142.31 152.28 142.31 148.45 130.98 148.45 130.98 152.27 130.98 152.27"/>
        <polygon class="cls-1" points="79.83 152.21 80.2 152.21 80.2 148.82 90.79 148.82 90.79 152.23 91.16 152.23 91.16 148.45 79.83 148.45 79.83 152.21 79.83 152.21"/>
        <g>
          <polygon class="cls-1" points="28.68 152.16 29.05 152.16 29.05 148.82 39.64 148.82 39.64 152.17 40.01 152.17 40.01 148.45 28.68 148.45 28.68 152.16 28.68 152.16"/>
          <polygon class="cls-1" points="10.78 126.9 10.78 122.88 -.37 122.88 -.37 122.88 -.37 123.24 -.37 123.24 10.41 123.24 10.41 126.53 -.37 126.53 -.37 126.53 -.37 126.9 -.37 126.9 10.78 126.9 10.78 126.9"/>
          <polygon class="cls-1" points="-.37 144.8 -.37 145.17 -.37 145.17 3.11 145.17 3.11 152.13 3.47 152.13 3.47 144.8 -.37 144.8 -.37 144.8 -.37 144.8"/>
          <path class="cls-1" d="M149.43,93.03c-.44,0-.8.36-.8.8s.36.8.8.8c.38,0,.7-.27.78-.62h.64v-.37h-.64c-.08-.36-.4-.62-.78-.62h0Z"/>
          <path class="cls-1" d="M149.43,41.88c-.44,0-.8.36-.8.8s.36.8.8.8c.38,0,.7-.27.78-.62h.64v-.37h-.64c-.08-.36-.4-.62-.78-.62h0Z"/>
          <path class="cls-1" d="M131.17,83.67c.44,0,.8-.36.8-.8s-.36-.8-.8-.8c-.38,0-.7.27-.78.62h-10.36v10.96h-6.34c-.08-.36-.4-.62-.78-.62-.44,0-.8.36-.8.8s.36.8.8.8c.38,0,.7-.27.78-.62h6.71v-10.96h10c.08.36.4.62.78.62h0Z"/>
          <polygon class="cls-1" points="145.6 46.52 150.86 46.52 150.86 46.15 145.96 46.15 145.96 31.9 150.86 31.9 150.86 31.54 145.6 31.54 145.6 46.52 145.6 46.52"/>
          <polygon class="cls-1" points="145.6 148.82 150.86 148.82 150.86 148.45 145.96 148.45 145.96 134.2 150.86 134.2 150.86 133.84 145.6 133.84 145.6 148.82 145.6 148.82"/>
          <path class="cls-1" d="M149.62,36.16c.36-.08.62-.4.62-.78,0-.44-.36-.8-.8-.8s-.8.36-.8.8c0,.38.27.7.62.78v3.05h1.61v-.37h-1.24v-2.69h0Z"/>
          <path class="cls-1" d="M3.47,101.14v-7.49H-.37v.37h3.47v17.9H-.18v-6.34c.36-.08.62-.4.62-.78,0-.44-.36-.8-.8-.8v8.29h3.84v-11.14h0Z"/>
          <path class="cls-1" d="M149.43,144.18c-.44,0-.8.36-.8.8s.36.8.8.8c.38,0,.7-.27.78-.62h.64v-.37h-.64c-.08-.36-.4-.62-.78-.62h0Z"/>
          <path class="cls-1" d="M149.62,138.46c.36-.08.62-.4.62-.78,0-.44-.36-.8-.8-.8s-.8.36-.8.8c0,.38.27.7.62.78v3.05h1.61v-.37h-1.24v-2.69h0Z"/>
          <polygon class="cls-1" points="145.6 97.67 150.86 97.67 150.86 97.3 145.96 97.3 145.96 83.05 150.86 83.05 150.86 82.69 145.6 82.69 145.6 97.67 145.6 97.67"/>
          <path class="cls-1" d="M3.47-1.16h-.37s0,10.77,0,10.77H-.18V3.27c.36-.08.62-.4.62-.78,0-.44-.36-.8-.8-.8v8.29h3.84V-1.16h0Z"/>
        </g>
        <path class="cls-1" d="M101.94,130.55h10.78v10.96h4.02v-14.61h3.65v-4.02h-3.05c-.08-.36-.4-.62-.78-.62-.44,0-.8.36-.8.8s.36.8.8.8c.38,0,.7-.27.78-.62h2.69v3.29h-3.65v14.61h-3.29v-10.96h-18.53l-3.76,3.76v10.85h-10.6v-2.69c.36-.08.62-.4.62-.78,0-.44-.36-.8-.8-.8s-.8.36-.8.8c0,.38.27.7.62.78v3.05h11.33v-11.07l3.55-3.55h7.23Z"/>
        <path class="cls-1" d="M57.91,148.82h14.98v-10.36c.36-.08.62-.4.62-.78,0-.44-.36-.8-.8-.8s-.8.36-.8.8c0,.38.27.7.62.78v10h-14.25v-14.61h-4.02v7.31h-6.94v-2.69c.36-.08.62-.4.62-.78,0-.44-.36-.8-.8-.8s-.8.36-.8.8c0,.38.27.7.62.78v3.05h7.67v-7.31h3.29v14.61h0Z"/>
        <path class="cls-1" d="M87.5,123.24v-18.27h3.65v-7.67h-11.33v7.31h-3.65v10.96h-3.29v-10.96h-14.98v10.96h-10c-.08-.36-.4-.62-.78-.62-.44,0-.8.36-.8.8s.36.8.8.8c.38,0,.7-.27.78-.62h10.36v-10.96h14.25v10.96h4.02v-10.96h3.65v-7.31h10.6v6.94h-3.65v18.27h-3.29v-10c.36-.08.62-.4.62-.78,0-.44-.36-.8-.8-.8s-.8.36-.8.8c0,.38.27.7.62.78v10.36h4.02Z"/>
        <path class="cls-1" d="M50.79,130.55h10.78v10.96h4.02v-14.61h3.65v-4.02h-3.05c-.08-.36-.4-.62-.78-.62-.44,0-.8.36-.8.8s.36.8.8.8c.38,0,.7-.27.78-.62h2.69v3.29h-3.65v14.61h-3.29v-10.96h-18.53l-3.76,3.76v10.85h-10.6v-2.69c.36-.08.62-.4.62-.78,0-.44-.36-.8-.8-.8s-.8.36-.8.8c0,.38.27.7.62.78v3.05h11.33v-11.07l3.55-3.55h7.23Z"/>
        <path class="cls-1" d="M20.77,68.44c.08.36.4.62.78.62.44,0,.8-.36.8-.8s-.36-.8-.8-.8c-.38,0-.7.27-.78.62h-6.34v-6.34c.36-.08.62-.4.62-.78,0-.44-.36-.8-.8-.8s-.8.36-.8.8c0,.38.27.7.62.78v6.71h6.71Z"/>
        <path class="cls-1" d="M25.39,75.75v-7.31h3.65v-10.96h3.65v-7.31h2.69c.08.36.4.62.78.62.44,0,.8-.36.8-.8s-.36-.8-.8-.8c-.38,0-.7.27-.78.62h-3.05v7.31h-3.65v10.96h-3.65v7.31h-3.29v-2.69c.36-.08.62-.4.62-.78,0-.44-.36-.8-.8-.8s-.8.36-.8.8c0,.38.27.7.62.78v3.05h4.02Z"/>
        <path class="cls-1" d="M40.01,94.01v-11.07l3.55-3.55h18.19v-.37h-18.34l-3.76,3.76v10.85h-10.6v-2.69c.36-.08.62-.4.62-.78,0-.44-.36-.8-.8-.8s-.8.36-.8.8c0,.38.27.7.62.78v3.05h11.33Z"/>
        <path class="cls-1" d="M50.79,126.53h-7.38l-7.41,7.41v7.2h-2.69c-.08-.36-.4-.62-.78-.62-.44,0-.8.36-.8.8s.36.8.8.8c.38,0,.7-.27.78-.62h3.05v-7.41l7.2-7.2h18.38v-4.02h-21.92v-14.25h3.65v-6.71c.36-.08.62-.4.62-.78,0-.44-.36-.8-.8-.8s-.8.36-.8.8c0,.38.27.7.62.78v6.34h-3.65v14.98h21.92v3.29h-10.78Z"/>
        <g>
          <path class="cls-1" d="M101.94,126.53h-7.38l-7.41,7.41v7.2h-2.69c-.08-.36-.4-.62-.78-.62-.44,0-.8.36-.8.8s.36.8.8.8c.38,0,.7-.27.78-.62h3.05v-7.41l7.2-7.2h18.38v-4.02h-21.92v-14.25h3.65v-6.71c.36-.08.62-.4.62-.78,0-.44-.36-.8-.8-.8s-.8.36-.8.8c0,.38.27.7.62.78v6.34h-3.65v14.98h21.92v3.29h-10.78Z"/>
          <path class="cls-1" d="M3.47,49.99v-7.49H-.37v.37h3.47v17.9H-.18v-6.34c.36-.08.62-.4.62-.78,0-.44-.36-.8-.8-.8v8.29h3.84v-11.14h0Z"/>
          <polygon class="cls-1" points="10.78 24.59 10.78 20.58 -.37 20.58 -.37 20.58 -.37 20.94 -.37 20.94 10.41 20.94 10.41 24.23 -.37 24.23 -.37 24.23 -.37 24.59 -.37 24.59 10.78 24.59 10.78 24.59"/>
          <polygon class="cls-1" points="10.78 75.75 10.78 71.73 -.37 71.73 -.37 71.73 -.37 72.09 -.37 72.09 10.41 72.09 10.41 75.38 -.37 75.38 -.37 75.38 -.37 75.75 -.37 75.75 10.78 75.75 10.78 75.75"/>
          <polygon class="cls-1" points="7.12 13.63 7.12 2.67 21.37 2.67 21.37 13.63 25.39 13.63 25.39 2.67 29.05 2.67 29.05 -1.13 28.68 -1.13 28.68 2.31 25.03 2.31 25.03 13.27 21.74 13.27 21.74 2.31 6.76 2.31 6.76 13.27 -.37 13.27 -.37 13.27 -.37 13.63 -.37 13.63 7.12 13.63 7.12 13.63"/>
        </g>
        <path class="cls-1" d="M138.66,123.24v-18.27h3.65v-7.67h-11.33v7.31h-3.65v10.96h-3.29v-10.96h-14.98v10.96h-10c-.08-.36-.4-.62-.78-.62-.44,0-.8.36-.8.8s.36.8.8.8c.38,0,.7-.27.78-.62h10.36v-10.96h14.25v10.96h4.02v-10.96h3.65v-7.31h10.6v6.94h-3.65v18.27h-3.29v-10c.36-.08.62-.4.62-.78,0-.44-.36-.8-.8-.8s-.8.36-.8.8c0,.38.27.7.62.78v10.36h4.02Z"/>
        <path class="cls-1" d="M17.1,79.22c0,.44.36.8.8.8.38,0,.7-.27.78-.62h10.36v-6.71c.36-.08.62-.4.62-.78,0-.44-.36-.8-.8-.8s-.8.36-.8.8c0,.38.27.7.62.78v6.34h-10c-.08-.36-.4-.62-.78-.62-.44,0-.8.36-.8.8h0Z"/>
        <path class="cls-1" d="M109.06,148.82h14.98v-10.36c.36-.08.62-.4.62-.78,0-.44-.36-.8-.8-.8s-.8.36-.8.8c0,.38.27.7.62.78v10h-14.25v-14.61h-4.02v7.31h-6.94v-2.69c.36-.08.62-.4.62-.78,0-.44-.36-.8-.8-.8s-.8.36-.8.8c0,.38.27.7.62.78v3.05h7.67v-7.31h3.29v14.61h0Z"/>
        <path class="cls-1" d="M71.93,119.59c.08.36.4.62.78.62.44,0,.8-.36.8-.8s-.36-.8-.8-.8c-.38,0-.7.27-.78.62h-6.34v-6.34c.36-.08.62-.4.62-.78,0-.44-.36-.8-.8-.8s-.8.36-.8.8c0,.38.27.7.62.78v6.71h6.71Z"/>
        <path class="cls-1" d="M50.79,144.8h-2.87c-.08-.36-.4-.62-.78-.62-.44,0-.8.36-.8.8s.36.8.8.8c.38,0,.7-.27.78-.62h6.34v7.02h.37s0-7.39,0-7.39h-3.84Z"/>
        <path class="cls-1" d="M43.66,148.45v-14.25h6.94v2.69c-.36.08-.62.4-.62.78,0,.44.36.8.8.8s.8-.36.8-.8c0-.38-.27-.7-.62-.78v-3.05h-7.67v14.98h7.31v3.29h-3.65v.07h4.02s0-3.73,0-3.73h-7.31Z"/>
        <path class="cls-1" d="M135,130.44l3.05-3.05c.12.08.27.12.42.12.44,0,.8-.36.8-.8s-.36-.8-.8-.8-.8.36-.8.8c0,.16.04.3.12.42l-3.15,3.15v7.2h-7.31v14.61h-17.3c-.08-.36-.4-.62-.78-.62-.43,0-.78.34-.8.76l19.25.02v-14.41h7.31v-7.41h0Z"/>
        <path class="cls-1" d="M94.81,148.45v-14.25h6.94v2.69c-.36.08-.62.4-.62.78,0,.44.36.8.8.8s.8-.36.8-.8c0-.38-.27-.7-.62-.78v-3.05h-7.67v14.98h7.31v3.29h-3.65v.13h4.02s0-3.78,0-3.78h-7.31Z"/>
        <path class="cls-1" d="M101.94,144.8h-2.87c-.08-.36-.4-.62-.78-.62-.44,0-.8.36-.8.8s.36.8.8.8c.38,0,.7-.27.78-.62h6.34v7.08h.37s0-7.44,0-7.44h-3.84Z"/>
        <path class="cls-1" d="M83.85,130.44l3.05-3.05c.12.08.27.12.42.12.44,0,.8-.36.8-.8s-.36-.8-.8-.8-.8.36-.8.8c0,.16.05.3.12.42l-3.15,3.15v7.2h-7.31v14.61h-17.3c-.08-.36-.4-.62-.78-.62-.41,0-.75.31-.8.7l19.25.02v-14.35h7.31v-7.41h0Z"/>
        <path class="cls-1" d="M20.77,119.59c.08.36.4.62.78.62.44,0,.8-.36.8-.8s-.36-.8-.8-.8c-.38,0-.7.27-.78.62h-6.34v-6.34c.36-.08.62-.4.62-.78,0-.44-.36-.8-.8-.8s-.8.36-.8.8c0,.38.27.7.62.78v6.71h6.71Z"/>
        <path class="cls-1" d="M32.7,130.44l3.05-3.05c.12.08.27.12.42.12.44,0,.8-.36.8-.8s-.36-.8-.8-.8-.8.36-.8.8c0,.16.05.3.12.42l-3.15,3.15v7.2h-7.31v14.61H7.72c-.08-.36-.4-.62-.78-.62s-.72.28-.79.65l19.24.02v-14.3h7.31v-7.41h0Z"/>
        <path class="cls-1" d="M131.17,71.11c-.44,0-.8.36-.8.8,0,.38.27.7.62.78v6.34h-10c-.08-.36-.4-.62-.78-.62-.44,0-.8.36-.8.8s.36.8.8.8c.38,0,.7-.27.78-.62h10.36v-6.71c.36-.08.62-.4.62-.78,0-.44-.36-.8-.8-.8h0Z"/>
        <path class="cls-1" d="M28.86,122.26c-.44,0-.8.36-.8.8,0,.38.27.7.62.78v6.34h-10c-.08-.36-.4-.62-.78-.62-.44,0-.8.36-.8.8s.36.8.8.8c.38,0,.7-.27.78-.62h10.36v-6.71c.36-.08.62-.4.62-.78,0-.44-.36-.8-.8-.8h0Z"/>
        <g>
          <path class="cls-1" d="M28.86,133.22c-.38,0-.7.27-.78.62h-10.36v10.96h-6.34c-.08-.36-.4-.62-.78-.62-.44,0-.8.36-.8.8s.36.8.8.8c.38,0,.7-.27.78-.62h6.71v-10.96h10c.08.36.4.62.78.62.44,0,.8-.36.8-.8s-.36-.8-.8-.8h0Z"/>
          <path class="cls-1" d="M6.76,148.82h14.98v-10.36c.36-.08.62-.4.62-.78,0-.44-.36-.8-.8-.8s-.8.36-.8.8c0,.38.27.7.62.78v10H7.12v-14.61H3.11v7.31H-.37v.37h3.84v-7.31h3.29v14.61h0Z"/>
          <path class="cls-1" d="M.44,137.68c0-.38-.27-.7-.62-.78v-3.05h-.18v4.64c.44,0,.8-.36.8-.8H.44Z"/>
          <path class="cls-1" d="M10.78,119.59v-10.96h6.94v6.34c-.36.08-.62.4-.62.78,0,.44.36.8.8.8s.8-.36.8-.8c0-.38-.27-.7-.62-.78v-6.71h-7.67v10.96H-.37v.37h11.14Z"/>
          <path class="cls-1" d="M7.12,115.94v-10.96h14.25v10.96h4.02v-10.96h3.65v-7.31h10.6v6.94h-3.65v18.27h-3.29v-10c.36-.08.62-.4.62-.78,0-.44-.36-.8-.8-.8s-.8.36-.8.8c0,.38.27.7.62.78v10.36h4.02v-18.27h3.65v-7.67h-11.33v7.31h-3.65v10.96h-3.29v-10.96H6.76v10.96H-.37v.37h7.49Z"/>
          <path class="cls-1" d="M10.41,130.55v10.96h4.02v-14.61h3.65v-4.02h-3.05c-.08-.36-.4-.62-.78-.62-.44,0-.8.36-.8.8s.36.8.8.8c.38,0,.7-.27.78-.62h2.69v3.29h-3.65v14.61h-3.29v-10.96H-.37v.37h10.78Z"/>
          <path class="cls-1" d="M142.31,6.33h3.65V-.38c.31-.07.54-.32.61-.63h-1.58c.06.31.3.55.61.63v6.34h-3.65v14.98h8.91v-.37h-8.55V6.33h0Z"/>
          <path class="cls-1" d="M138.29,31.64v7.2h-2.69c-.08-.36-.4-.62-.78-.62-.44,0-.8.36-.8.8s.36.8.8.8c.38,0,.7-.27.78-.62h3.05v-7.41l7.2-7.2h5v-.37h-5.15l-7.41,7.41h0Z"/>
          <path class="cls-1" d="M141.94,31.64v10.85h-10.6v-2.69c.36-.08.62-.4.62-.78,0-.44-.36-.8-.8-.8s-.8.36-.8.8c0,.38.27.7.62.78v3.05h11.33v-11.07l3.55-3.55h5v-.37h-5.15l-3.76,3.76h0Z"/>
          <path class="cls-1" d="M149.25,49.81v6.71c-.36.08-.62.4-.62.78,0,.44.36.8.8.8s.8-.36.8-.8c0-.38-.27-.7-.62-.78v-6.34h1.24v-.37h-1.61Z"/>
          <path class="cls-1" d="M149.43,63.8c-.44,0-.8.36-.8.8s.36.8.8.8c.38,0,.7-.27.78-.62h.64v-.37h-.64c-.08-.36-.4-.62-.78-.62h0Z"/>
          <path class="cls-1" d="M149.25-1v6.37c-.36.08-.62.4-.62.78,0,.44.36.8.8.8s.8-.36.8-.8c0-.38-.27-.7-.62-.78V-.98h1.24v-.02h-1.61Z"/>
          <path class="cls-1" d="M149.43,12.65c-.44,0-.8.36-.8.8s.36.8.8.8c.38,0,.7-.27.78-.62h.64v-.37h-.64c-.08-.36-.4-.62-.78-.62h0Z"/>
          <path class="cls-1" d="M145.96,9.98h2.69c.08.36.4.62.78.62.44,0,.8-.36.8-.8s-.36-.8-.8-.8c-.38,0-.7.27-.78.62h-3.05v7.67h5.26v-.37h-4.9v-6.94h0Z"/>
          <path class="cls-1" d="M145.96,112.28h2.69c.08.36.4.62.78.62.44,0,.8-.36.8-.8s-.36-.8-.8-.8c-.38,0-.7.27-.78.62h-3.05v7.67h5.26v-.37h-4.9v-6.94h0Z"/>
          <path class="cls-1" d="M141.94,133.95v10.85h-10.6v-2.69c.36-.08.62-.4.62-.78,0-.44-.36-.8-.8-.8s-.8.36-.8.8c0,.38.27.7.62.78v3.05h11.33v-11.07l3.55-3.55h5v-.37h-5.15l-3.76,3.76h0Z"/>
          <path class="cls-1" d="M142.31,108.63h3.65v-6.71c.36-.08.62-.4.62-.78,0-.44-.36-.8-.8-.8s-.8.36-.8.8c0,.38.27.7.62.78v6.34h-3.65v14.98h8.91v-.37h-8.55v-14.25h0Z"/>
          <path class="cls-1" d="M138.29,133.95v7.2h-2.69c-.08-.36-.4-.62-.78-.62-.44,0-.8.36-.8.8s.36.8.8.8c.38,0,.7-.27.78-.62h3.05v-7.41l7.2-7.2h5v-.37h-5.15l-7.41,7.41h0Z"/>
          <path class="cls-1" d="M149.43,114.95c-.44,0-.8.36-.8.8s.36.8.8.8c.38,0,.7-.27.78-.62h.64v-.37h-.64c-.08-.36-.4-.62-.78-.62h0Z"/>
          <path class="cls-1" d="M138.29,82.79v7.2h-2.69c-.08-.36-.4-.62-.78-.62-.44,0-.8.36-.8.8s.36.8.8.8c.38,0,.7-.27.78-.62h3.05v-7.41l7.2-7.2h5v-.37h-5.15l-7.41,7.41h0Z"/>
          <path class="cls-1" d="M142.31,57.48h3.65v-6.71c.36-.08.62-.4.62-.78,0-.44-.36-.8-.8-.8s-.8.36-.8.8c0,.38.27.7.62.78v6.34h-3.65v14.98h8.91v-.37h-8.55v-14.25h0Z"/>
          <path class="cls-1" d="M145.96,61.13h2.69c.08.36.4.62.78.62.44,0,.8-.36.8-.8s-.36-.8-.8-.8c-.38,0-.7.27-.78.62h-3.05v7.67h5.26v-.37h-4.9v-6.94h0Z"/>
          <path class="cls-1" d="M149.25,100.96v6.71c-.36.08-.62.4-.62.78,0,.44.36.8.8.8s.8-.36.8-.8c0-.38-.27-.7-.62-.78v-6.34h1.24v-.37h-1.61Z"/>
          <path class="cls-1" d="M141.94,82.79v10.85h-10.6v-2.69c.36-.08.62-.4.62-.78,0-.44-.36-.8-.8-.8s-.8.36-.8.8c0,.38.27.7.62.78v3.05h11.33v-11.07l3.55-3.55h5v-.37h-5.15l-3.76,3.76h0Z"/>
        </g>
        <path class="cls-1" d="M32.7,101.32h2.69c.08.36.4.62.78.62.44,0,.8-.36.8-.8s-.36-.8-.8-.8c-.38,0-.7.27-.78.62h-3.05v7.31h-3.65v10.96h-3.65v7.31h-3.29v-2.69c.36-.08.62-.4.62-.78,0-.44-.36-.8-.8-.8s-.8.36-.8.8c0,.38.27.7.62.78v3.05h4.02v-7.31h3.65v-10.96h3.65v-7.31h0Z"/>
        <path class="cls-1" d="M135,28.14l3.05-3.05c.12.08.27.12.42.12.44,0,.8-.36.8-.8s-.36-.8-.8-.8-.8.36-.8.8c0,.16.04.3.12.42l-3.15,3.15v7.2h-7.31v14.61h-17.3c-.08-.36-.4-.62-.78-.62-.44,0-.8.36-.8.8s.36.8.8.8c.38,0,.7-.27.78-.62h17.67v-14.61h7.31v-7.41h0Z"/>
        <path class="cls-1" d="M142.31,49.99v-3.84h-11.33v7.31h-3.65v10.96h-3.29v-10.96h-14.98v10.96h-10c-.08-.36-.4-.62-.78-.62-.44,0-.8.36-.8.8s.36.8.8.8c.38,0,.7-.27.78-.62h10.36v-10.96h14.25v10.96h4.02v-10.96h3.65v-7.31h10.6v6.94h-3.65v18.27h-3.29v-10c.36-.08.62-.4.62-.78,0-.44-.36-.8-.8-.8s-.8.36-.8.8c0,.38.27.7.62.78v10.36h4.02v-18.27h3.65v-3.84h0Z"/>
        <path class="cls-1" d="M135,79.29l3.05-3.05c.12.08.27.12.42.12.44,0,.8-.36.8-.8s-.36-.8-.8-.8-.8.36-.8.8c0,.16.04.3.12.42l-3.15,3.15v7.2h-7.31v14.61h-17.3c-.08-.36-.4-.62-.78-.62-.44,0-.8.36-.8.8s.36.8.8.8c.38,0,.7-.27.78-.62h17.67v-14.61h7.31v-7.41h0Z"/>
        <path class="cls-1" d="M131.17,122.26c-.44,0-.8.36-.8.8,0,.38.27.7.62.78v6.34h-10c-.08-.36-.4-.62-.78-.62-.44,0-.8.36-.8.8s.36.8.8.8c.38,0,.7-.27.78-.62h10.36v-6.71c.36-.08.62-.4.62-.78,0-.44-.36-.8-.8-.8h0Z"/>
        <path class="cls-1" d="M135,101.32h2.69c.08.36.4.62.78.62.44,0,.8-.36.8-.8s-.36-.8-.8-.8c-.38,0-.7.27-.78.62h-3.05v7.31h-3.65v10.96h-3.65v7.31h-3.29v-2.69c.36-.08.62-.4.62-.78,0-.44-.36-.8-.8-.8s-.8.36-.8.8c0,.38.27.7.62.78v3.05h4.02v-7.31h3.65v-10.96h3.65v-7.31h0Z"/>
        <path class="cls-1" d="M127.33,13.27h-3.29V2.31h-14.98v10.96h-10c-.08-.36-.4-.62-.78-.62-.44,0-.8.36-.8.8s.36.8.8.8c.38,0,.7-.27.78-.62h10.36V2.67h14.25v10.96h4.02V2.67h3.65V-1.02h-.37s0,3.33,0,3.33h-3.65v10.96h0Z"/>
        <path class="cls-1" d="M138.29,20.58h-3.29v-10c.36-.08.62-.4.62-.78,0-.44-.36-.8-.8-.8s-.8.36-.8.8c0,.38.27.7.62.78v10.36h4.02V2.67h3.65V-1.01h-.37s0,3.32,0,3.32h-3.65v18.27h0Z"/>
        <path class="cls-1" d="M101.13,2.49c0,.38.27.7.62.78v6.71h4.02V-1.05h-.37s0,10.67,0,10.67h-3.29V3.27c.36-.08.62-.4.62-.78,0-.44-.36-.8-.8-.8-.44,0-.8.36-.8.8h0Z"/>
        <path class="cls-1" d="M130.98,16.92h-3.65v7.31h-3.29v-2.69c.36-.08.62-.4.62-.78,0-.44-.36-.8-.8-.8s-.8.36-.8.8c0,.38.27.7.62.78v3.05h4.02v-7.31h3.65V6.33h3.65V-.98h2.69c.08.36.4.62.78.62s.72-.28.79-.66h-4.63s0,6.98,0,6.98h-3.65v10.96h0Z"/>
        <path class="cls-1" d="M131.17,133.22c-.38,0-.7.27-.78.62h-10.36v10.96h-6.34c-.08-.36-.4-.62-.78-.62-.44,0-.8.36-.8.8s.36.8.8.8c.38,0,.7-.27.78-.62h6.71v-10.96h10c.08.36.4.62.78.62.44,0,.8-.36.8-.8s-.36-.8-.8-.8h0Z"/>
        <path class="cls-1" d="M123.86,67.45c-.38,0-.7.27-.78.62h-6.34v-6.34c.36-.08.62-.4.62-.78,0-.44-.36-.8-.8-.8s-.8.36-.8.8c0,.38.27.7.62.78v6.71h6.71c.08.36.4.62.78.62.44,0,.8-.36.8-.8s-.36-.8-.8-.8h0Z"/>
        <path class="cls-1" d="M131.17,32.52c.44,0,.8-.36.8-.8s-.36-.8-.8-.8c-.38,0-.7.27-.78.62h-10.36v10.96h-6.34c-.08-.36-.4-.62-.78-.62-.44,0-.8.36-.8.8s.36.8.8.8c.38,0,.7-.27.78-.62h6.71v-10.96h10c.08.36.4.62.78.62h0Z"/>
        <path class="cls-1" d="M135,50.17h2.69c.08.36.4.62.78.62.44,0,.8-.36.8-.8s-.36-.8-.8-.8c-.38,0-.7.27-.78.62h-3.05v7.31h-3.65v10.96h-3.65v7.31h-3.29v-2.69c.36-.08.62-.4.62-.78,0-.44-.36-.8-.8-.8s-.8.36-.8.8c0,.38.27.7.62.78v3.05h4.02v-7.31h3.65v-10.96h3.65v-7.31h0Z"/>
        <path class="cls-1" d="M123.86,17.91c.44,0,.8-.36.8-.8s-.36-.8-.8-.8c-.38,0-.7.27-.78.62h-6.34v-6.34c.36-.08.62-.4.62-.78,0-.44-.36-.8-.8-.8s-.8.36-.8.8c0,.38.27.7.62.78v6.71h6.71c.08.36.4.62.78.62h0Z"/>
        <path class="cls-1" d="M80.01,122.26c-.44,0-.8.36-.8.8,0,.38.27.7.62.78v6.34h-10c-.08-.36-.4-.62-.78-.62-.44,0-.8.36-.8.8s.36.8.8.8c.38,0,.7-.27.78-.62h10.36v-6.71c.36-.08.62-.4.62-.78,0-.44-.36-.8-.8-.8h0Z"/>
        <path class="cls-1" d="M83.85,101.32h2.69c.08.36.4.62.78.62.44,0,.8-.36.8-.8s-.36-.8-.8-.8c-.38,0-.7.27-.78.62h-3.05v7.31h-3.65v10.96h-3.65v7.31h-3.29v-2.69c.36-.08.62-.4.62-.78,0-.44-.36-.8-.8-.8s-.8.36-.8.8c0,.38.27.7.62.78v3.05h4.02v-7.31h3.65v-10.96h3.65v-7.31h0Z"/>
        <path class="cls-1" d="M72.71,17.91c.44,0,.8-.36.8-.8s-.36-.8-.8-.8c-.38,0-.7.27-.78.62h-6.34v-6.34c.36-.08.62-.4.62-.78,0-.44-.36-.8-.8-.8s-.8.36-.8.8c0,.38.27.7.62.78v6.71h6.71c.08.36.4.62.78.62h0Z"/>
        <path class="cls-1" d="M80.01,133.22c-.38,0-.7.27-.78.62h-10.36v10.96h-6.34c-.08-.36-.4-.62-.78-.62-.44,0-.8.36-.8.8s.36.8.8.8c.38,0,.7-.27.78-.62h6.71v-10.96h10c.08.36.4.62.78.62.44,0,.8-.36.8-.8s-.36-.8-.8-.8h0Z"/>
        <g>
          <path class="cls-1" d="M28.68,16.92h-3.65v7.31h-3.29v-2.69c.36-.08.62-.4.62-.78,0-.44-.36-.8-.8-.8s-.8.36-.8.8c0,.38.27.7.62.78v3.05h4.02v-7.31h3.65V6.33h3.65V-.98h2.69c.08.36.4.62.78.62.43,0,.78-.34.8-.76h-4.64s0,7.08,0,7.08h-3.65v10.96h0Z"/>
          <path class="cls-1" d="M10.41,28.25v10.96h4.02v-14.61h3.65v-4.02h-3.05c-.08-.36-.4-.62-.78-.62-.44,0-.8.36-.8.8s.36.8.8.8c.38,0,.7-.27.78-.62h2.69v3.29h-3.65v14.61h-3.29v-10.96H-.37v.37h10.78Z"/>
          <path class="cls-1" d="M3.47,39.21v-7.31h3.29v14.61h14.98v-10.36c.36-.08.62-.4.62-.78,0-.44-.36-.8-.8-.8s-.8.36-.8.8c0,.38.27.7.62.78v10H7.12v-14.61H3.11v7.31H-.37v.37h3.84Z"/>
          <path class="cls-1" d="M.44,35.37c0-.38-.27-.7-.62-.78v-3.05h-.18v4.64c.44,0,.8-.36.8-.8H.44Z"/>
          <path class="cls-1" d="M10.78,17.29V6.33h6.94v6.34c-.36.08-.62.4-.62.78,0,.44.36.8.8.8s.8-.36.8-.8c0-.38-.27-.7-.62-.78v-6.71h-7.67v10.96H-.37v.37h11.14Z"/>
          <path class="cls-1" d="M10.41,79.4v10.96h4.02v-14.61h3.65v-4.02h-3.05c-.08-.36-.4-.62-.78-.62-.44,0-.8.36-.8.8s.36.8.8.8c.38,0,.7-.27.78-.62h2.69v3.29h-3.65v14.61h-3.29v-10.96H-.37v.37h10.78Z"/>
          <path class="cls-1" d="M.44,86.52c0-.38-.27-.7-.62-.78v-3.05h-.18v4.64c.44,0,.8-.36.8-.8H.44Z"/>
          <path class="cls-1" d="M3.47,90.36v-7.31h3.29v14.61h14.98v-10.36c.36-.08.62-.4.62-.78,0-.44-.36-.8-.8-.8s-.8.36-.8.8c0,.38.27.7.62.78v10H7.12v-14.61H3.11v7.31H-.37v.37h3.84Z"/>
          <path class="cls-1" d="M98.28,6.95c.44,0,.8-.36.8-.8,0-.38-.27-.7-.62-.78V-.98h3.65v-.07h-4.02s0,6.42,0,6.42c-.36.08-.62.4-.62.78,0,.44.36.8.8.8h0Z"/>
          <path class="cls-1" d="M7.12,64.79v-10.96h14.25v10.96h4.02v-10.96h3.65v-7.31h10.6v6.94h-3.65v18.27h-3.29v-10c.36-.08.62-.4.62-.78,0-.44-.36-.8-.8-.8s-.8.36-.8.8c0,.38.27.7.62.78v10.36h4.02v-18.27h3.65v-7.67h-11.33v7.31h-3.65v10.96h-3.29v-10.96H6.76v10.96H-.37v.37h7.49Z"/>
          <path class="cls-1" d="M10.78,68.44v-10.96h6.94v6.34c-.36.08-.62.4-.62.78,0,.44.36.8.8.8s.8-.36.8-.8c0-.38-.27-.7-.62-.78v-6.71h-7.67v10.96H-.37v.37h11.14Z"/>
        </g>
        <path class="cls-1" d="M87.14,20.58h-3.29v-10c.36-.08.62-.4.62-.78,0-.44-.36-.8-.8-.8s-.8.36-.8.8c0,.38.27.7.62.78v10.36h4.02V2.67h3.65V-1.07h-.37s0,3.37,0,3.37h-3.65v18.27h0Z"/>
        <path class="cls-1" d="M79.83,16.92h-3.65v7.31h-3.29v-2.69c.36-.08.62-.4.62-.78,0-.44-.36-.8-.8-.8s-.8.36-.8.8c0,.38.27.7.62.78v3.05h4.02v-7.31h3.65V6.33h3.65V-.98h2.69c.08.36.4.62.78.62.41,0,.75-.31.8-.71h-4.63s0,7.03,0,7.03h-3.65v10.96h0Z"/>
        <path class="cls-1" d="M76.18,13.27h-3.29V2.31h-14.98v10.96h-10c-.08-.36-.4-.62-.78-.62-.44,0-.8.36-.8.8s.36.8.8.8c.38,0,.7-.27.78-.62h10.36V2.67h14.25v10.96h4.02V2.67h3.65V-1.08h-.37s0,3.39,0,3.39h-3.65v10.96h0Z"/>
        <path class="cls-1" d="M35.99,20.58h-3.29v-10c.36-.08.62-.4.62-.78,0-.44-.36-.8-.8-.8s-.8.36-.8.8c0,.38.27.7.62.78v10.36h4.02V2.67h3.65V-1.12h-.37s0,3.43,0,3.43h-3.65v18.27h0Z"/>
        <path class="cls-1" d="M94.45-.38v6.34h-3.65v14.98h21.92v3.29h-18.16l-7.41,7.41v7.2h-2.69c-.08-.36-.4-.62-.78-.62-.44,0-.8.36-.8.8s.36.8.8.8c.38,0,.7-.27.78-.62h3.05v-7.41l7.2-7.2h18.38v-4.02h-21.92V6.33h3.65V-.38c.32-.08.57-.35.61-.68h-1.59c.04.33.29.6.61.68h0Z"/>
        <path class="cls-1" d="M47.13,6.95c.44,0,.8-.36.8-.8,0-.38-.27-.7-.62-.78V-.98h3.65v-.13h-4.02s0,6.47,0,6.47c-.36.08-.62.4-.62.78,0,.44.36.8.8.8h0Z"/>
        <path class="cls-1" d="M43.3-.38v6.34h-3.65v14.98h21.92v3.29h-18.16l-7.41,7.41v7.2h-2.69c-.08-.36-.4-.62-.78-.62-.44,0-.8.36-.8.8s.36.8.8.8c.38,0,.7-.27.78-.62h3.05v-7.41l7.2-7.2h18.38v-4.02h-21.92V6.33h3.65V-.38c.34-.08.6-.38.62-.73h-1.6c.02.36.28.66.62.73h0Z"/>
        <path class="cls-1" d="M49.98,2.49c0,.38.27.7.62.78v6.71h4.02V-1.1h-.37s0,10.72,0,10.72h-3.29V3.27c.36-.08.62-.4.62-.78,0-.44-.36-.8-.8-.8-.44,0-.8.36-.8.8h0Z"/>
        <path class="cls-1" d="M69.24,62.84v-5.73h-6.71c-.08-.36-.4-.62-.78-.62-.44,0-.8.36-.8.8s.36.8.8.8c.38,0,.7-.27.78-.62h6.34v5.36h.37Z"/>
        <path class="cls-1" d="M90.98,82.69c-.44,0-.8.36-.8.8,0,.38.27.7.62.78v9.38h-10.6v-5.33h-.37v5.7h11.33v-9.74c.36-.08.62-.4.62-.78,0-.44-.36-.8-.8-.8h0Z"/>
        <path class="cls-1" d="M87.5,56.16v-2.34h3.65v-3.84h-.37v3.47h-3.65v2.7h0v.58c-.36.08-.62.4-.62.78,0,.44.36.8.8.8s.8-.36.8-.8c0-.38-.27-.7-.62-.78v-.58h0Z"/>
      </g>
    </g>
  </g>
</svg>