<?xml version="1.0" encoding="utf-8"?>
<!-- Generator: Adobe Illustrator 27.7.0, SVG Export Plug-In . SVG Version: 6.00 Build 0)  -->
<svg version="1.1" id="Layer_1" xmlns="http://www.w3.org/2000/svg" xmlns:xlink="http://www.w3.org/1999/xlink" x="0px" y="0px"
	 viewBox="0 0 2074.7 839.3" style="enable-background:new 0 0 2074.7 839.3;" xml:space="preserve">
<style type="text/css">
	.st0{fill:#260859;}
	.st1{fill:#FAA634;}
</style>
<g>
	<g>
		<path class="st0" d="M389.1,653.7L376,594.4l-11.1,59.3h-5.5l12.8-69.1h6.6l13.9,63.1l37.6-63.1h7l-12.8,69.1h-5.5l11.1-59.3
			l-35.3,59.3H389.1z"/>
		<path class="st0" d="M455.8,584.6h40l-1,5.4h-34.5l-4.8,25.6h30.9l-1,5.4h-30.9l-5.1,27.4h34.5l-1,5.4h-40L455.8,584.6z"/>
		<path class="st0" d="M526.7,653.7l-13.1-59.3l-11.1,59.3H497l12.8-69.1h6.6l13.9,63.1l37.6-63.1h7l-12.8,69.1h-5.5l11.1-59.3
			l-35.3,59.3H526.7z"/>
		<path class="st0" d="M580.4,653.7l12.9-69.1h19.9c15.3,0,21.3,6.6,21.3,15.5c0,10.7-9.5,16.2-15.3,17.5l-0.1,0.5
			c6.7,0.4,12.8,4.7,12.8,13.8c0,12.4-7.6,21.8-28.9,21.8H580.4z M586.9,648.3h16.2c18.2,0,23.7-6.5,23.7-16.9
			c0-5.5-2.9-8.4-2.9-8.4s-3.8-2.1-15.3-2.1H592L586.9,648.3z M597.8,590l-4.8,25.6h15.1c14.9,0,20.9-6.2,20.9-15.7
			c0-5.4-3.1-8.4-3.1-8.4s-5-1.4-15.5-1.4H597.8z"/>
		<path class="st0" d="M654.9,584.6h40l-1,5.4h-34.5l-4.8,25.6h30.9l-1,5.4h-30.9l-5.1,27.4h34.5l-1,5.4h-40L654.9,584.6z"/>
		<path class="st0" d="M706.5,627.1l-5,26.6h-5.5l12.9-69.1h20.4c14.9,0,21.8,6.3,21.8,17.5c0,15.5-10.9,22-19.5,23.9
			c3.7,9.3,7.4,18.6,11.1,27.7h-6l-10.5-26.6H706.5z M713.5,590l-5.9,31.7h14.9c17.5,0,23.1-7.9,23.1-19.6c0-5.9-2.7-9.5-2.7-9.5
			s-4.8-2.7-15.1-2.7H713.5z"/>
		<path class="st0" d="M820.2,633.4H788l-11.7,20.4h-6.2l39.7-69.1h6.2l13.8,69.1h-5.6L820.2,633.4z M790.9,628.1h28.4l-7.4-36.7
			L790.9,628.1z"/>
		<path class="st0" d="M844.7,643.2c0,0,4.6,6.5,16.6,6.5c11.1,0,18.3-4.3,18.3-4.3l-1,5.4c0,0-7,4.3-17.2,4.3
			c-14.9,0-23.5-8.1-23.5-25.9c0-28.6,15.3-46.1,36.3-46.1c11.4,0,16.4,3.8,16.4,3.8l-1,5.4c0,0-6.3-3.8-15.7-3.8
			c-19.8,0-30.5,15.9-30.5,41.7C843.3,638.8,844.7,643.2,844.7,643.2z"/>
		<path class="st0" d="M897.3,643.2c0,0,4.6,6.5,16.6,6.5c11.1,0,18.3-4.3,18.3-4.3l-1,5.4c0,0-7,4.3-17.2,4.3
			c-14.9,0-23.5-8.1-23.5-25.9c0-28.6,15.3-46.1,36.2-46.1c11.4,0,16.4,3.8,16.4,3.8l-1,5.4c0,0-6.3-3.8-15.7-3.8
			c-19.8,0-30.5,15.9-30.5,41.7C896,638.8,897.3,643.2,897.3,643.2z"/>
		<path class="st0" d="M956.8,584.6h40l-1,5.4h-34.5l-4.8,25.6h30.9l-1,5.4h-30.9l-5.1,27.4h34.5l-1,5.4h-40L956.8,584.6z"/>
		<path class="st0" d="M1045.7,592.4c0,0-7.4-3.8-19.1-3.8c-12.8,0-18.4,6.2-18.4,13.6c0,15.1,33.4,10.5,33.4,31.3
			c0,12.8-8.6,21.6-28.2,21.6c-12.5,0-19.9-4.2-19.9-4.2l1.1-5.9c0,0,7.6,4.6,19.9,4.6c15.2,0,21.6-7.1,21.6-15.4
			c0-16.2-33.4-11.6-33.4-31.7c0-11.4,8.4-19.4,25-19.4c12.3,0,19.2,3.6,19.2,3.6L1045.7,592.4z"/>
		<path class="st0" d="M1098.4,592.4c0,0-7.4-3.8-19.1-3.8c-12.8,0-18.4,6.2-18.4,13.6c0,15.1,33.4,10.5,33.4,31.3
			c0,12.8-8.6,21.6-28.2,21.6c-12.5,0-19.9-4.2-19.9-4.2l1.1-5.9c0,0,7.6,4.6,19.9,4.6c15.2,0,21.6-7.1,21.6-15.4
			c0-16.2-33.4-11.6-33.4-31.7c0-11.4,8.4-19.4,25-19.4c12.3,0,19.2,3.6,19.2,3.6L1098.4,592.4z"/>
		<path class="st0" d="M1135.3,628.7l-4.6,25h-5.5l12.9-69.1h20c15.1,0,22,6.6,22,18c0,15.2-9.3,26.1-30.3,26.1H1135.3z M1142.6,590
			l-6.3,33.3h14.6c17.4,0,23.8-8.2,23.8-20.8c0-6.5-2.9-10-2.9-10s-5-2.5-15.3-2.5H1142.6z"/>
		<path class="st0" d="M1195.5,627.1l-5,26.6h-5.5l12.9-69.1h20.4c14.9,0,21.8,6.3,21.8,17.5c0,15.5-10.9,22-19.5,23.9
			c3.7,9.3,7.4,18.6,11.1,27.7h-6l-10.5-26.6H1195.5z M1202.4,590l-5.9,31.7h14.9c17.5,0,23.1-7.9,23.1-19.6c0-5.9-2.7-9.5-2.7-9.5
			s-4.8-2.7-15.1-2.7H1202.4z"/>
		<path class="st0" d="M1246,629.4c0-28.7,15.3-46.2,36.2-46.2c14.5,0,22.7,8.1,22.7,25.8c0,28.7-15.3,46.2-36.2,46.2
			C1254.2,655.1,1246,647,1246,629.4z M1299.4,607.9c0-8.4-1.3-13.1-1.3-13.1s-4.6-6.3-16-6.3c-18.9,0-30.6,14.8-30.6,41.9
			c0,8.4,1.3,13.1,1.3,13.1s4.6,6.2,16,6.2C1287.7,649.7,1299.4,635,1299.4,607.9z"/>
		<path class="st0" d="M1319.2,643.2c0,0,4.6,6.5,16.6,6.5c11.1,0,18.3-4.3,18.3-4.3l-1,5.4c0,0-7,4.3-17.2,4.3
			c-14.9,0-23.5-8.1-23.5-25.9c0-28.6,15.3-46.1,36.3-46.1c11.4,0,16.4,3.8,16.4,3.8l-1,5.4c0,0-6.3-3.8-15.7-3.8
			c-19.8,0-30.5,15.9-30.5,41.7C1317.8,638.8,1319.2,643.2,1319.2,643.2z"/>
		<path class="st0" d="M1378.7,584.6h40l-1,5.4h-34.5l-4.8,25.6h30.9l-1,5.4h-30.9l-5.1,27.4h34.5l-1,5.4h-40L1378.7,584.6z"/>
		<path class="st0" d="M1467.6,592.4c0,0-7.4-3.8-19.1-3.8c-12.8,0-18.4,6.2-18.4,13.6c0,15.1,33.4,10.5,33.4,31.3
			c0,12.8-8.6,21.6-28.2,21.6c-12.5,0-19.9-4.2-19.9-4.2l1.1-5.9c0,0,7.6,4.6,19.9,4.6c15.2,0,21.6-7.1,21.6-15.4
			c0-16.2-33.4-11.6-33.4-31.7c0-11.4,8.4-19.4,25-19.4c12.3,0,19.2,3.6,19.2,3.6L1467.6,592.4z"/>
		<path class="st0" d="M1520.3,592.4c0,0-7.4-3.8-19.1-3.8c-12.8,0-18.4,6.2-18.4,13.6c0,15.1,33.4,10.5,33.4,31.3
			c0,12.8-8.6,21.6-28.2,21.6c-12.5,0-19.9-4.2-19.9-4.2l1.1-5.9c0,0,7.6,4.6,19.9,4.6c15.2,0,21.6-7.1,21.6-15.4
			c0-16.2-33.4-11.6-33.4-31.7c0-11.4,8.4-19.4,25-19.4c12.3,0,19.2,3.6,19.2,3.6L1520.3,592.4z"/>
		<path class="st0" d="M1538.1,584.6h5.5l-12.9,69.1h-5.5L1538.1,584.6z"/>
		<path class="st0" d="M1561.7,584.6h6l28.2,60.6l11.3-60.6h5.5l-12.8,69.1h-6l-28.2-60.6l-11.3,60.6h-5.5L1561.7,584.6z"/>
		<path class="st0" d="M1624.7,630.2c0,8.5,1.4,13,1.4,13s4.6,6.5,16.6,6.5c13.4,0,20.5-7,20.5-7l3.7-20h-18.9l1-5.4h24.3l-5.4,28.4
			c0,0-9.1,9.4-25.1,9.4c-14.9,0-23.5-8.1-23.5-25.9c0-28.6,15.6-46.1,36.5-46.1c12,0,18.2,4,18.2,4l-1,5.4c0,0-7.5-4-17.6-4
			C1635.6,588.6,1624.7,604.5,1624.7,630.2z"/>
	</g>
	<path class="st1" d="M1025.8,733.9c-438.1,83.4-821.6,14.7-856.7-153.4c-11.2-53.7,14.6-111.1,69.1-167
		C71.5,515.5-20.3,621.3,4.2,704.8c47.1,160.6,506.5,177.7,1026,38.2c52.9-14.2,104.4-29.5,154.1-45.7
		C1133.6,711.2,1080.6,723.5,1025.8,733.9"/>
	<path class="st1" d="M2067.8,133.4c-36.5-124.2-319.5-162.5-686.2-109c301-10.5,529.7,59.8,556.4,187.8
		c17.7,84.8-56.7,178.6-190.8,261.6C1967.8,357.6,2096.3,230.4,2067.8,133.4"/>
	<path class="st0" d="M693.5,394.3L693.5,394.3L859.5,98.7h168.9l-85.7,440.5H810l35-181l7.2-36.2l0,0L725.5,539.1H607.9
		l-42.2-217.2l0,0l-7.2,36.2l-35,181H390.7l85.7-440.5h159.9l52.5,259.4l6.1,36.2H693.5z"/>
	<path class="st0" d="M1257.4,539.1l-10.9-69.4h-144.8l-37.4,69.4H913.5l260.7-440.5h135.8l89.3,440.5H1257.4z M1159,361.1h72.4
		l-10.9-114.6l0,0l0,0l-18.7,36.2L1159,361.1z"/>
	<path class="st0" d="M1521.9,412.4l-24.7,126.7h-132.7l85.7-440.5h205.1c98.3,0,148.4,54.3,148.4,125.5
		c0,110.4-74.8,188.2-209.4,188.2H1521.9z M1560.6,213.3l-16.3,84.5h63.4c33.2,0,51.3-15.1,57.3-48.3l7.2-36.2H1560.6z"/>
	<g>
		<path class="st0" d="M1711.1,571.9l-0.5,2.7h-7.7l-4.3,22.2h-2.9l4.3-22.2h-7.7l0.5-2.7H1711.1z"/>
		<path class="st0" d="M1717.5,576.9h-0.2l-0.2,1.7l-3.6,18.3h-2.9l4.9-25h3.6l4.5,20.3l0.2,1.7h0.2l0.8-1.7l12.4-20.3h3.8l-4.9,25
			h-2.9l3.6-18.3l0.5-1.7h-0.2l-12.2,20h-3.2L1717.5,576.9z"/>
	</g>
</g>
</svg>
