<?xml version="1.0" encoding="UTF-8"?>
<svg id="Layer_1" data-name="Layer 1" xmlns="http://www.w3.org/2000/svg" viewBox="0 0 24.21 21.81">
  <defs>
    <style>
      .cls-1 {
        fill: #faa536;
      }
    </style>
  </defs>
  <path class="cls-1" d="M13.73,11.16c0,2.49,1.01,4.75,2.64,6.38,1.63,1.63,3.89,2.64,6.38,2.64v-2.61c-1.77,0-3.37-.72-4.53-1.88-1.16-1.16-1.88-2.76-1.88-4.53h6.41s0-9.03,0-9.03h-9.03s0,9.03,0,9.03h0Z"/>
  <path class="cls-1" d="M1.99,11.16c0,2.49,1.01,4.75,2.64,6.38,1.63,1.63,3.89,2.64,6.38,2.64v-2.61c-1.77,0-3.37-.72-4.53-1.88-1.16-1.16-1.88-2.76-1.88-4.53h6.41s0-9.03,0-9.03H1.99s0,9.03,0,9.03h0Z"/>
</svg>